<svg width="1920" height="1080" viewBox="0 0 1920 1080" xmlns="http://www.w3.org/2000/svg"><rect width="1920" height="1080" fill="#7752fe"/><path d="M 0,1080 C 0,1080 0,154 0,154 C 138.24615384615385,151.25641025641028 276.4923076923077,148.51282051282053 369,140 C 461.5076923076923,131.48717948717947 508.276923076923,117.20512820512819 596,115 C 683.723076923077,112.79487179487181 812.3999999999999,122.66666666666669 922,126 C 1031.6000000000001,129.33333333333331 1122.123076923077,126.12820512820512 1227,124 C 1331.876923076923,121.87179487179488 1451.1076923076923,120.82051282051282 1569,126 C 1686.8923076923077,131.17948717948718 1803.4461538461537,142.5897435897436 1920,154 C 1920,154 1920,1080 1920,1080 Z" fill="#001b79" opacity="0.08571428571428572"/><path d="M 0,1080 C 0,1080 0,308 0,308 C 102.87179487179486,281.39230769230767 205.74358974358972,254.7846153846154 300,271 C 394.2564102564103,287.2153846153846 479.8974358974359,346.25384615384615 590,359 C 700.1025641025641,371.74615384615385 834.6666666666667,338.2 949,308 C 1063.3333333333333,277.8 1157.4358974358975,250.94615384615383 1257,254 C 1356.5641025641025,257.05384615384617 1461.5897435897434,290.01538461538456 1573,304 C 1684.4102564102566,317.98461538461544 1802.2051282051284,312.9923076923077 1920,308 C 1920,308 1920,1080 1920,1080 Z" fill="#001b79" opacity="0.17142857142857143"/><path d="M 0,1080 C 0,1080 0,462 0,462 C 81.42564102564103,439.9025641025641 162.85128205128206,417.8051282051282 279,429 C 395.14871794871794,440.1948717948718 546.0205128205127,484.68205128205125 651,491 C 755.9794871794873,497.31794871794875 815.0666666666668,465.46666666666664 904,452 C 992.9333333333332,438.53333333333336 1111.7128205128201,443.45128205128213 1232,461 C 1352.2871794871799,478.54871794871787 1474.0820512820515,508.7282051282051 1589,511 C 1703.9179487179485,513.2717948717949 1811.9589743589743,487.63589743589745 1920,462 C 1920,462 1920,1080 1920,1080 Z" fill="#001b79" opacity="0.2571428571428571"/><path d="M 0,1080 C 0,1080 0,617 0,617 C 119.9025641025641,604.2128205128206 239.8051282051282,591.4256410256411 336,586 C 432.1948717948718,580.5743589743589 504.68205128205125,582.5102564102564 604,584 C 703.3179487179488,585.4897435897436 829.4666666666667,586.5333333333334 956,603 C 1082.5333333333333,619.4666666666666 1209.4512820512819,651.3564102564103 1307,642 C 1404.5487179487181,632.6435897435897 1472.7282051282052,582.0410256410256 1570,571 C 1667.2717948717948,559.9589743589744 1793.6358974358973,588.4794871794873 1920,617 C 1920,617 1920,1080 1920,1080 Z" fill="#001b79" opacity="0.34285714285714286"/><path d="M 0,1080 C 0,1080 0,771 0,771 C 87.6102564102564,768.0897435897436 175.2205128205128,765.1794871794872 297,764 C 418.7794871794872,762.8205128205128 574.7282051282052,763.3717948717948 697,757 C 819.2717948717948,750.6282051282052 907.8666666666666,737.3333333333333 996,746 C 1084.1333333333334,754.6666666666667 1171.805128205128,785.2948717948718 1269,798 C 1366.194871794872,810.7051282051282 1472.9128205128206,805.4871794871794 1583,798 C 1693.0871794871794,790.5128205128206 1806.5435897435896,780.7564102564103 1920,771 C 1920,771 1920,1080 1920,1080 Z" fill="#001b79" opacity="0.4285714285714286"/><path d="M 0,1080 C 0,1080 0,925 0,925 C 126.77692307692308,931.7871794871795 253.55384615384617,938.574358974359 360,943 C 466.44615384615383,947.425641025641 552.5615384615384,949.4897435897434 644,961 C 735.4384615384616,972.5102564102566 832.2000000000002,993.4666666666669 927,970 C 1021.7999999999998,946.5333333333331 1114.6384615384613,878.6435897435896 1232,875 C 1349.3615384615387,871.3564102564104 1491.246153846154,931.9589743589744 1610,951 C 1728.753846153846,970.0410256410256 1824.376923076923,947.5205128205127 1920,925 C 1920,925 1920,1080 1920,1080 Z" fill="#001b79" opacity="0.5142857142857142"/><path d="M 0,1080 C 0,1080 0,1079 0,1079 C 79.57948717948719,1096.9897435897437 159.15897435897438,1114.9794871794873 265,1126 C 370.8410256410256,1137.0205128205127 502.94358974358977,1141.0717948717947 622,1113 C 741.0564102564102,1084.9282051282053 847.0666666666666,1024.7333333333333 941,1029 C 1034.9333333333334,1033.2666666666667 1116.7897435897437,1101.9948717948716 1237,1106 C 1357.2102564102563,1110.0051282051284 1515.7743589743588,1049.2871794871794 1636,1034 C 1756.2256410256412,1018.7128205128205 1838.1128205128207,1048.8564102564103 1920,1079 C 1920,1079 1920,1080 1920,1080 Z" fill="#001b79" opacity="0.6"/></svg>